HIERARCHY
ROOT Hips
{
	OFFSET	0.00	0.00	0.00
	CHANNELS 6 Xposition Yposition Zposition Zrotation Xrotation Yrotation
	JOINT LeftUpLeg
	{
		OFFSET	 0.126116	-0.014019	-0.065224
		CHANNELS 3 Zrotation Xrotation Yrotation
		JOINT LeftLeg
		{
			OFFSET	 0.000000	 0.000000	 0.569914
			CHANNELS 3 Zrotation Xrotation Yrotation
			JOINT LeftFoot
			{
				OFFSET	 0.000000	 0.000000	 0.544423
				CHANNELS 3 Zrotation Xrotation Yrotation
				JOINT LeftToeBase
				{
					OFFSET	 0.000000	 0.000000	 0.207117
					CHANNELS 3 Zrotation Xrotation Yrotation
					End Site
					{
						OFFSET	 0.000000	 0.000000	 0.207117
					}
				}
			}
		}
	}
	JOINT RightUpLeg
	{
		OFFSET	-0.124023	-0.008373	-0.065224
		CHANNELS 3 Zrotation Xrotation Yrotation
		JOINT RightLeg
		{
			OFFSET	 0.000000	 0.000000	 0.570047
			CHANNELS 3 Zrotation Xrotation Yrotation
			JOINT RightFoot
			{
				OFFSET	 0.000000	 0.000000	 0.544354
				CHANNELS 3 Zrotation Xrotation Yrotation
				JOINT RightToeBase
				{
					OFFSET	 0.000000	 0.000000	 0.207540
					CHANNELS 3 Zrotation Xrotation Yrotation
					End Site
					{
						OFFSET	 0.000000	 0.000000	 0.207540
					}
				}
			}
		}
	}
	JOINT Spine
	{
		OFFSET	 0.000184	-0.007763	 0.117403
		CHANNELS 3 Zrotation Xrotation Yrotation
		JOINT Spine1
		{
			OFFSET	 0.000000	 0.000000	 0.137269
			CHANNELS 3 Zrotation Xrotation Yrotation
			JOINT Spine2
			{
				OFFSET	 0.000000	 0.000000	 0.156879
				CHANNELS 3 Zrotation Xrotation Yrotation
				JOINT LeftShoulder
				{
					OFFSET	 0.080501	-0.002496	 0.160144
					CHANNELS 3 Zrotation Xrotation Yrotation
					JOINT LeftArm
					{
						OFFSET	 0.000000	 0.000000	 0.164363
						CHANNELS 3 Zrotation Xrotation Yrotation
						JOINT LeftForeArm
						{
							OFFSET	 0.000000	 0.000000	 0.364576
							CHANNELS 3 Zrotation Xrotation Yrotation
							JOINT LeftHand
							{
								OFFSET	 0.000000	 0.000000	 0.360812
								CHANNELS 3 Zrotation Xrotation Yrotation
								JOINT LeftHandIndex1
								{
									OFFSET	 0.000000	 0.000000	 0.086006
									CHANNELS 3 Zrotation Xrotation Yrotation
									JOINT LeftHandIndex2
									{
										OFFSET	 0.000000	 0.000000	 0.047236
										CHANNELS 3 Zrotation Xrotation Yrotation
										JOINT LeftHandIndex3
										{
											OFFSET	-0.004284	-0.000551	 0.038166
											CHANNELS 3 Zrotation Xrotation Yrotation
											End Site
											{
												OFFSET	-0.004284	-0.000551	 0.038166
											}
										}
									}
								}
							}
						}
					}
				}
				JOINT Neck
				{
					OFFSET	 0.000000	 0.000000	 0.176489
					CHANNELS 3 Zrotation Xrotation Yrotation
					JOINT Head
					{
						OFFSET	 0.000000	-0.001747	 0.077940
						CHANNELS 3 Zrotation Xrotation Yrotation
						End Site
						{
							OFFSET	 0.000000	-0.001747	 0.077940
						}
					}
				}
				JOINT RightShoulder
				{
					OFFSET	-0.080363	 0.000306	 0.159706
					CHANNELS 3 Zrotation Xrotation Yrotation
					JOINT RightArm
					{
						OFFSET	 0.000000	 0.000000	 0.164196
						CHANNELS 3 Zrotation Xrotation Yrotation
						JOINT RightForeArm
						{
							OFFSET	 0.000000	 0.000000	 0.365611
							CHANNELS 3 Zrotation Xrotation Yrotation
							JOINT RightHand
							{
								OFFSET	 0.000000	 0.000000	 0.360648
								CHANNELS 3 Zrotation Xrotation Yrotation
								JOINT RightHandIndex1
								{
									OFFSET	 0.000000	 0.000000	 0.069977
									CHANNELS 3 Zrotation Xrotation Yrotation
									JOINT RightHandIndex2
									{
										OFFSET	 0.000000	 0.000000	 0.052305
										CHANNELS 3 Zrotation Xrotation Yrotation
										JOINT RightHandIndex3
										{
											OFFSET	 0.009002	-0.000782	 0.042196
											CHANNELS 3 Zrotation Xrotation Yrotation
											End Site
											{
												OFFSET	 0.009002	-0.000782	 0.042196
											}
										}
									}
								}
							}
						}
					}
				}
			}
		}
	}
}
MOTION
Frames:    7
Frame Time: 0.03333334
-0.056856	-2.224642	 1.235788	 3.839728	-1.773491	-3.036803	 0.602053	-8.111471	-171.671000	 0.156754	-29.279700	-0.102872	 23.802780	 71.480630	-26.554300	-2.371757	 31.214610	-0.060885	-2.532387	-28.238160	-175.753400	 10.003780	-53.682450	 8.728569	 8.722420	 63.835510	-4.161680	 2.357688	 33.187820	 0.107599	-14.462720	 8.945928	 1.951264	-1.081493	 2.363614	-0.287507	 0.314826	-2.207844	 0.161980	-93.730640	 58.819750	 175.847800	 15.743010	 36.828200	-41.466640	-13.509540	 1.810158	-7.737834	 5.850995	-48.851250	-0.076092	-4.869171	 19.260450	-2.790431	-3.891288	 21.347800	 2.212662	-4.806777	 5.562949	 0.145947	-0.136369	-5.002548	 0.153123	-1.975073	 2.278666	 2.810577	 89.846250	 61.544900	-179.847700	-21.477190	 53.466950	 12.424870	 11.594180	 2.301263	 20.061080	-13.183800	-34.620320	-4.081197	 6.306551	 26.155690	-0.577615	 1.707814	 46.097360	-6.834107	 0.316419	 25.189160	 3.675993
-0.057895	-2.246519	 1.236374	 4.395447	-1.503238	-3.008771	 0.023831	-7.148173	-171.824900	 0.577720	-28.870380	 0.088008	 23.966050	 71.999530	-27.066870	-2.370721	 31.392650	-0.064893	-3.691289	-29.769640	-175.674400	 10.140900	-51.203130	 8.534512	 9.593040	 65.797340	-5.561677	 2.358222	 33.110030	 0.105776	-14.898910	 8.817673	 1.873283	-1.150727	 2.300144	-0.292275	 0.228733	-2.287501	 0.177656	-93.833980	 58.917590	 175.616700	 15.406830	 35.582630	-42.323390	-14.212940	 1.816574	-7.737394	 5.695973	-49.302780	-1.001390	-4.869311	 19.243360	-2.786467	-3.888160	 21.387870	 2.209491	-4.808252	 5.545583	 0.146965	-0.106643	-5.038442	 0.168471	-1.958931	 2.231217	 2.709751	 89.811740	 61.607800	-179.929400	-21.237520	 54.097000	 11.450590	 11.411160	 2.251019	 19.596300	-13.610440	-34.407320	-4.425908	 6.300190	 25.546650	-0.562696	 1.791836	 45.446640	-6.909446	 0.422416	 24.729920	 3.621245
-0.058999	-2.269351	 1.236235	 4.955349	-1.214597	-2.993622	-0.632046	-6.184577	-171.985300	 0.863083	-28.476630	 0.243350	 24.192740	 72.535520	-27.585030	-2.369733	 31.559110	-0.068663	-4.851733	-31.286380	-175.651100	 10.103940	-48.363190	 8.160881	 10.829590	 67.326000	-7.386837	 2.358795	 33.026920	 0.103844	-15.323090	 8.673990	 1.792445	-1.213534	 2.267950	-0.283286	 0.144446	-2.384676	 0.197607	-93.937030	 58.999950	 175.386600	 14.982750	 34.261620	-43.205140	-14.761640	 1.820432	-7.733161	 5.521742	-49.516220	-1.990082	-4.869060	 19.248510	-2.786520	-3.884033	 21.440760	 2.205297	-4.808270	 5.545386	 0.146975	-0.075783	-5.075254	 0.184215	-1.940233	 2.185730	 2.595320	 89.779360	 61.648980	 179.993500	-20.972500	 54.720520	 10.277490	 11.247390	 2.210607	 19.495570	-14.083560	-34.027770	-4.725319	 6.293676	 24.840600	-0.540008	 1.889983	 44.664390	-6.997111	 0.539544	 24.217950	 3.561552
-0.060183	-2.293216	 1.235436	 5.459223	-0.788804	-3.009794	-1.186361	-5.310698	-172.123700	 1.060474	-28.091780	 0.333286	 24.436770	 73.073740	-27.992380	-2.368868	 31.702590	-0.071916	-6.144003	-32.851640	-175.719100	 10.216980	-44.983480	 7.805846	 11.546630	 68.376140	-8.746402	 2.358973	 33.000080	 0.103232	-15.634780	 8.402994	 1.682767	-1.278200	 2.252840	-0.206842	 0.054966	-2.492508	 0.183832	-94.055400	 59.017990	 175.131600	 14.372610	 32.904110	-44.025890	-15.007990	 1.821247	-7.730850	 5.898800	-49.616730	-2.388406	-4.865896	 19.334010	-2.793084	-3.877618	 21.522750	 2.198780	-4.805873	 5.573608	 0.145324	-0.049714	-5.097147	 0.215917	-1.943620	 2.151542	 2.519899	 89.735590	 61.702290	 179.888800	-20.676550	 55.348910	 8.991967	 10.912910	 2.139970	 19.587300	-14.693690	-33.473720	-5.033905	 6.282490	 23.991060	-0.545440	 1.991683	 43.827610	-7.087530	 0.710489	 23.462190	 3.475976
-0.061474	-2.317611	 1.234027	 5.944856	-0.335268	-3.038443	-1.726308	-4.463044	-172.263600	 1.224779	-27.749800	 0.406070	 24.681100	 73.655710	-28.362110	-2.368044	 31.839050	-0.075007	-7.495234	-34.202050	-175.912800	 10.243560	-41.135360	 7.287932	 13.135090	 69.586210	-11.062340	 2.359056	 32.987300	 0.102929	-15.908570	 8.105099	 1.565573	-1.340065	 2.242796	-0.110957	-0.035046	-2.602197	 0.160033	-94.176480	 59.020240	 174.872900	 13.720590	 31.550100	-44.822870	-15.158520	 1.819334	-7.722360	 6.387128	-49.538150	-2.661880	-4.862046	 19.438420	-2.801202	-3.870700	 21.611080	 2.191751	-4.802914	 5.608538	 0.143278	-0.025023	-5.115127	 0.251270	-1.952400	 2.120503	 2.454640	 89.689510	 61.758100	 179.778400	-20.342440	 55.953110	 7.658628	 10.535750	 2.059901	 19.756610	-15.301420	-32.735040	-5.298391	 6.270109	 23.114460	-0.557819	 2.090807	 42.985370	-7.175230	 0.890926	 22.653620	 3.387674
-0.062557	-2.342505	 1.232129	 6.205761	 0.094157	-3.215634	-2.018817	-3.455204	-172.253000	 1.336366	-27.256400	 0.450518	 25.329320	 74.405610	-29.111160	-2.366755	 32.048090	-0.079761	-8.180658	-35.259810	-175.919300	 10.237160	-36.904660	 6.654562	 13.732800	 68.904430	-12.455120	 2.360224	 32.813450	 0.098903	-16.008960	 7.750011	 1.605104	-1.381195	 2.396178	-0.023165	-0.100314	-2.732434	 0.126406	-94.280730	 58.983570	 174.656000	 12.983370	 30.256610	-45.633660	-15.570250	 1.818865	-7.713151	 7.184535	-49.346170	-1.989721	-4.853938	 19.629400	-2.810538	-3.860450	 21.741500	 2.181333	-4.796663	 5.682114	 0.138963	-0.013573	-5.150313	 0.285088	-1.981423	 2.093736	 2.441331	 89.620720	 61.842530	 179.612500	-19.895470	 56.515850	 6.413305	 9.911281	 1.918508	 19.803570	-16.193030	-31.692420	-5.833684	 6.253280	 22.106780	-0.590321	 2.181430	 42.191310	-7.255019	 1.111951	 21.647920	 3.282416
-0.063741	-2.367232	 1.229859	 6.432080	 0.511106	-3.411534	-2.274397	-2.462481	-172.230800	 1.439206	-26.817490	 0.490212	 26.120100	 75.213840	-29.997620	-2.365391	 32.263940	-0.084704	-8.746209	-36.019620	-175.959500	 10.213440	-32.535570	 5.952346	 14.377570	 67.971930	-13.845220	 2.361508	 32.619590	 0.094426	-16.081080	 7.393513	 1.664646	-1.423190	 2.535092	 0.057472	-0.161047	-2.846925	 0.093981	-94.380930	 58.942130	 174.449000	 12.304690	 29.057290	-46.369940	-15.997530	 1.817231	-7.701126	 7.981730	-48.952460	-1.234884	-4.845322	 19.829470	-2.819901	-3.849874	 21.875690	 2.170588	-4.790041	 5.759984	 0.134389	-0.004172	-5.187363	 0.318144	-2.012788	 2.068186	 2.435370	 89.550130	 61.929700	 179.441300	-19.397800	 57.008640	 5.292959	 9.262549	 1.768004	 19.606870	-17.051080	-30.444790	-6.332098	 6.235602	 21.097670	-0.625160	 2.267230	 41.417720	-7.330193	 1.331832	 20.631020	 3.180958
